<svg width="87" height="33" viewBox="0 0 87 33" fill="none" xmlns="http://www.w3.org/2000/svg">
<g clip-path="url(#clip0_429_24578)">
<path fill-rule="evenodd" clip-rule="evenodd" d="M53.9068 23.91C48.9433 27.5694 41.7475 29.5214 35.553 29.5214C26.8661 29.5214 19.0467 26.3086 13.1303 20.9653C12.6659 20.545 13.0819 19.9726 13.6395 20.2997C20.0245 24.0146 27.9186 26.2489 36.0729 26.2489C41.5726 26.2489 47.6227 25.1111 53.1858 22.7502C54.0256 22.3932 54.7289 23.3006 53.9068 23.91Z" fill="#8F95B3"/>
<path fill-rule="evenodd" clip-rule="evenodd" d="M55.9712 21.5491C55.3383 20.7385 51.7763 21.1658 50.1777 21.3557C49.6906 21.4147 49.616 20.9909 50.0547 20.6858C52.892 18.689 57.5477 19.2658 58.0903 19.9349C58.6335 20.6083 57.9495 25.2754 55.2828 27.5018C54.8739 27.8439 54.4835 27.6619 54.6656 27.2082C55.2643 25.7134 56.6069 22.3634 55.9712 21.5491Z" fill="#8F95B3"/>
<path fill-rule="evenodd" clip-rule="evenodd" d="M50.2894 6.58934V4.64801C50.2894 4.35432 50.512 4.15734 50.7801 4.15734H59.4698C59.7486 4.15734 59.9719 4.35859 59.9719 4.64801V6.31059C59.9683 6.58934 59.7344 6.95343 59.3177 7.53014L54.8142 13.9593C56.4874 13.9181 58.2538 14.1677 59.7706 15.0224C60.1134 15.2158 60.2066 15.4989 60.2329 15.7776V17.8491C60.2329 18.1314 59.92 18.4621 59.5929 18.2914C56.9191 16.8898 53.3678 16.7369 50.4124 18.3056C50.1109 18.4692 49.7945 18.1421 49.7945 17.8597V15.8928C49.7945 15.5771 49.798 15.0373 50.1145 14.5581L55.3312 7.07645H50.7914C50.512 7.07645 50.2894 6.87948 50.2894 6.58934ZM18.5895 18.7003H15.9456C15.8261 18.6944 15.7127 18.6458 15.626 18.5633C15.5393 18.4808 15.4852 18.3699 15.4734 18.2509V4.68143C15.4734 4.40979 15.7003 4.19432 15.9826 4.19432H18.448C18.5696 4.19819 18.6856 4.24649 18.7741 4.33009C18.8625 4.41368 18.9173 4.52678 18.928 4.64801V6.42152H18.9763C19.6192 4.70774 20.8281 3.90774 22.4565 3.90774C24.1113 3.90774 25.1445 4.70703 25.8891 6.42152C26.5283 4.70774 27.9826 3.90774 29.5406 3.90774C30.6485 3.90774 31.861 4.36499 32.6005 5.39183C33.4375 6.53317 33.2661 8.19148 33.2661 9.6457L33.2626 18.2089C33.2626 18.4805 33.035 18.6996 32.7527 18.6996H30.113C29.8492 18.6811 29.6366 18.4692 29.6366 18.2089V11.0181C29.6366 10.4457 29.6892 9.01779 29.5627 8.4745C29.3657 7.56428 28.774 7.30685 28.0082 7.30685C27.3682 7.30685 26.6997 7.73494 26.4281 8.41903C26.1564 9.10312 26.1827 10.2487 26.1827 11.0181V18.2096C26.1827 18.4813 25.9552 18.7003 25.6729 18.7003H23.0332C22.9063 18.6943 22.7865 18.6403 22.698 18.5492C22.6095 18.458 22.559 18.3366 22.5568 18.2096L22.5532 11.0181C22.5532 9.5049 22.8021 7.2777 20.9248 7.2777C19.0247 7.2777 19.0987 9.44872 19.0987 11.0181V18.2096C19.0987 18.4813 18.8718 18.7003 18.5895 18.7003ZM67.4535 3.90845C71.3767 3.90845 73.4994 7.2777 73.4994 11.5607C73.4994 15.6994 71.1527 18.9833 67.4535 18.9833C63.6014 18.9833 61.5036 15.6141 61.5036 11.4164C61.5036 7.19237 63.627 3.90845 67.4535 3.90845ZM67.4755 6.67894C65.5271 6.67894 65.4048 9.33352 65.4048 10.9883C65.4048 12.6466 65.3785 16.1865 67.4535 16.1865C69.5022 16.1865 69.5989 13.3307 69.5989 11.5906C69.5989 10.4457 69.5506 9.07681 69.205 7.99165C68.9077 7.04659 68.3161 6.67894 67.4755 6.67894ZM78.5866 18.7003H75.9541C75.6896 18.6818 75.4777 18.4699 75.4777 18.2096L75.4741 4.63734C75.4962 4.38845 75.7159 4.19503 75.9833 4.19503H78.4338C78.5429 4.19867 78.6478 4.23758 78.733 4.30591C78.8181 4.37424 78.8788 4.46832 78.9059 4.57405V6.64908H78.9543C79.6946 4.79308 80.7321 3.90845 82.5575 3.90845C83.7436 3.90845 84.9006 4.33583 85.6437 5.50774C86.3356 6.5929 86.3356 8.41903 86.3356 9.73174V18.2729C86.3058 18.5111 86.0867 18.7003 85.8265 18.7003H83.1747C82.9337 18.6818 82.7324 18.5033 82.7068 18.2729V10.9029C82.7068 9.41957 82.8775 7.24783 81.0521 7.24783C80.4085 7.24783 79.8176 7.67877 79.5232 8.3337C79.152 9.16285 79.1036 9.98845 79.1036 10.9029V18.2096C79.0988 18.3428 79.042 18.4688 78.9453 18.5605C78.8486 18.6522 78.7199 18.7024 78.5866 18.7003ZM43.3618 12.2192C43.3618 13.2489 43.3881 14.1079 42.8675 15.0231C42.4473 15.7669 41.7781 16.2242 41.0378 16.2242C40.0224 16.2242 39.4279 15.4505 39.4279 14.3092C39.4279 12.0549 41.4474 11.6468 43.3618 11.6468V12.2192ZM46.0284 18.6633C45.943 18.7363 45.8373 18.7815 45.7254 18.7928C45.6136 18.8041 45.501 18.781 45.4026 18.7266C44.5258 17.9977 44.3658 17.6599 43.8858 16.9637C42.4359 18.4436 41.4062 18.8866 39.5282 18.8866C37.301 18.8866 35.5715 17.5141 35.5715 14.7664C35.5715 12.621 36.7321 11.1597 38.3904 10.4457C39.8254 9.81281 41.83 9.70188 43.3618 9.52694V9.18561C43.3618 8.55628 43.4101 7.81317 43.0382 7.26988C42.7182 6.78276 42.101 6.58223 41.5548 6.58223C40.5472 6.58223 39.6505 7.09921 39.4314 8.16943C39.3866 8.40765 39.2117 8.64232 38.9706 8.65299L36.4085 8.37779C36.1931 8.32943 35.9513 8.15521 36.0138 7.82383C36.6026 4.71557 39.413 3.77832 41.9267 3.77832C43.2131 3.77832 44.8935 4.12036 45.909 5.09459C47.1961 6.29637 47.073 7.8985 47.073 9.64214V13.7623C47.073 15.0004 47.5858 15.5437 48.0693 16.2128C48.2364 16.451 48.2741 16.7369 48.0579 16.9154C47.3754 17.4923 46.6998 18.0773 46.0313 18.6704L46.0277 18.6633H46.0284ZM8.70221 12.2192C8.70221 13.2489 8.72852 14.1079 8.20727 15.0231C7.78772 15.7669 7.12212 16.2242 6.3783 16.2242C5.36283 16.2242 4.77119 15.4505 4.77119 14.3092C4.77119 12.0549 6.79074 11.6468 8.70221 11.6468V12.2192ZM11.3689 18.6633C11.2834 18.7363 11.1777 18.7815 11.0659 18.7928C10.9541 18.8041 10.8414 18.781 10.7431 18.7266C9.8663 17.9977 9.70985 17.6599 9.2263 16.9637C7.77563 18.4436 6.75021 18.8866 4.86861 18.8866C2.64496 18.8866 0.911987 17.5141 0.911987 14.7664C0.911987 12.621 2.07608 11.1597 3.73083 10.4457C5.16585 9.81281 7.16976 9.70188 8.7015 9.52694V9.18561C8.7015 8.55628 8.75056 7.81317 8.38221 7.26988C8.05865 6.78276 7.44141 6.58223 6.89883 6.58223C5.89119 6.58223 4.99092 7.09921 4.7719 8.16943C4.7271 8.40765 4.55216 8.64232 4.31465 8.65299L1.74896 8.37779C1.53279 8.32943 1.29528 8.15521 1.3543 7.82454C1.94594 4.71556 4.75341 3.77832 7.26648 3.77832C8.55359 3.77832 10.2339 4.12036 11.2487 5.09459C12.5358 6.29637 12.4135 7.8985 12.4135 9.64214V13.7623C12.4135 15.0004 12.9262 15.5437 13.4091 16.2128C13.5804 16.451 13.6181 16.7369 13.4019 16.9154C12.7194 17.4923 12.0438 18.0773 11.3753 18.6704L11.3682 18.6633" fill="#8F95B3"/>
</g>
<defs>
<clipPath id="clip0_429_24578">
<rect width="85.3333" height="32" fill="white" transform="translate(0.912109 0.934082)"/>
</clipPath>
</defs>
</svg>
